<svg width="789" height="85" viewBox="0 0 789 85" fill="none" xmlns="http://www.w3.org/2000/svg">
<rect width="788.703" height="84.0127" fill="#0281C8"/>
<path d="M49.6042 35.2538V46.2484H31.857V60.1864H51.9416L50.3833 71.0078H18.6982V12.5722H50.3833V23.5667H31.857V35.2538H49.6042ZM55.2239 54.0398H68.4693C68.8156 58.8878 70.1141 62.1775 74.183 62.1775C78.0787 62.1775 79.2907 59.5804 79.2907 56.2041C79.2907 52.2218 77.2996 49.7978 70.3738 46.2484C60.245 41.0541 56.4359 36.639 56.4359 28.0684C56.4359 18.0261 62.4959 11.4467 74.0964 11.4467C87.7747 11.4467 91.6704 20.0173 91.757 28.9341H78.8578C78.5981 24.8653 77.819 21.4024 74.0098 21.4024C71.0664 21.4024 69.6813 23.307 69.6813 26.5967C69.6813 29.973 70.9798 31.7044 77.3861 34.821C88.2075 40.275 92.7958 44.9498 92.7958 54.7324C92.7958 64.4284 87.1687 72.1332 74.0098 72.1332C59.8121 72.1332 55.4836 63.9955 55.2239 54.0398ZM96.5448 54.0398H109.79C110.136 58.8878 111.435 62.1775 115.504 62.1775C119.4 62.1775 120.612 59.5804 120.612 56.2041C120.612 52.2218 118.62 49.7978 111.695 46.2484C101.566 41.0541 97.7568 36.639 97.7568 28.0684C97.7568 18.0261 103.817 11.4467 115.417 11.4467C129.096 11.4467 132.991 20.0173 133.078 28.9341H120.179C119.919 24.8653 119.14 21.4024 115.331 21.4024C112.387 21.4024 111.002 23.307 111.002 26.5967C111.002 29.973 112.301 31.7044 118.707 34.821C129.528 40.275 134.117 44.9498 134.117 54.7324C134.117 64.4284 128.49 72.1332 115.331 72.1332C101.133 72.1332 96.8045 63.9955 96.5448 54.0398ZM170.523 35.2538V46.2484H152.776V60.1864H172.861L171.303 71.0078H139.617V12.5722H171.303V23.5667H152.776V35.2538H170.523ZM189.757 71.0078H177.81V12.5722H192.527C201.444 40.1018 203.435 46.7678 204.041 49.365H204.301C203.695 42.0064 203.522 32.397 203.522 23.307V12.5722H215.382V71.0078H200.925C191.662 40.6213 189.93 34.7344 189.324 32.2238H189.065C189.497 39.2361 189.757 50.0575 189.757 59.5804V71.0078ZM230.983 71.0078V23.5667H219.469V12.5722H255.829V23.5667H244.401V71.0078H230.983ZM260.198 12.5722H273.617V71.0078H260.198V12.5722ZM303.728 58.455H293.079L291.088 71.0078H277.67L289.184 12.5722H308.056L319.743 71.0078H305.805L303.728 58.455ZM294.811 47.2007H301.996C300.611 38.6301 299.312 29.1073 298.62 23.7399H298.187C297.581 29.367 296.196 38.6301 294.811 47.2007ZM323.396 71.0078V12.5722H336.814V60.0998H355.34L354.128 71.0078H323.396ZM359.137 71.0078V12.5722H372.555V60.0998H391.081L389.869 71.0078H359.137ZM410.701 71.0078H397.283V52.0487C397.283 51.183 397.196 50.3173 396.763 49.365L383.085 12.5722H397.889C400.313 21.4024 402.997 31.5313 404.468 38.7167C406.027 32.0507 408.97 21.1427 411.134 12.5722H424.986L411.134 49.4515C410.875 50.1441 410.701 50.7501 410.701 51.789V71.0078ZM463.58 58.455H452.932L450.941 71.0078H437.522L449.036 12.5722H467.909L479.596 71.0078H465.658L463.58 58.455ZM454.663 47.2007H461.849C460.464 38.6301 459.165 29.1073 458.473 23.7399H458.04C457.434 29.367 456.049 38.6301 454.663 47.2007ZM487.237 71.0078V23.5667H475.723V12.5722H512.083V23.5667H500.656V71.0078H487.237ZM516.453 71.0078V12.5722H529.872V34.6478H540V12.5722H553.506V71.0078H540V45.9021H529.872V71.0078H516.453ZM561.494 71.0078V12.5722H574.912V60.0998H593.439L592.227 71.0078H561.494ZM628.141 35.2538V46.2484H610.394V60.1864H630.478L628.92 71.0078H597.235V12.5722H628.92V23.5667H610.394V35.2538H628.141ZM644.067 71.0078V23.5667H632.553V12.5722H668.913V23.5667H657.485V71.0078H644.067ZM673.282 12.5722H686.701V71.0078H673.282V12.5722ZM717.937 52.6547H731.356C731.182 58.7147 729.018 72.1332 712.743 72.1332C696.554 72.1332 693.178 60.3595 693.178 41.6601C693.178 20.5367 699.844 11.5333 713.262 11.5333C728.845 11.5333 731.182 23.4801 731.356 30.4058H717.937C717.85 27.1161 717.764 22.095 713.089 22.095C708.414 22.095 707.289 27.4624 707.289 41.7467C707.289 54.2995 707.981 61.6581 712.916 61.6581C717.504 61.6581 717.764 56.2041 717.937 52.6547ZM734.643 54.0398H747.889C748.235 58.8878 749.534 62.1775 753.602 62.1775C757.498 62.1775 758.71 59.5804 758.71 56.2041C758.71 52.2218 756.719 49.7978 749.793 46.2484C739.664 41.0541 735.855 36.639 735.855 28.0684C735.855 18.0261 741.915 11.4467 753.516 11.4467C767.194 11.4467 771.09 20.0173 771.176 28.9341H758.277C758.018 24.8653 757.238 21.4024 753.429 21.4024C750.486 21.4024 749.101 23.307 749.101 26.5967C749.101 29.973 750.399 31.7044 756.806 34.821C767.627 40.275 772.215 44.9498 772.215 54.7324C772.215 64.4284 766.588 72.1332 753.429 72.1332C739.232 72.1332 734.903 63.9955 734.643 54.0398Z" fill="white"/>
</svg>
