<svg id="Glyph" enable-background="new 0 0 64 64" height="512" viewBox="0 0 64 64" width="512" xmlns="http://www.w3.org/2000/svg"><path d="m37.719 55.189c5.429-9.638 3.156-21.767-5.405-28.838-.005-.004-.01-.009-.014-.012l.037.092-.006.069c1.668 4.406 1.434 9.243-.615 13.393l-1.444 2.926-.443-3.233c-.301-2.193-1.128-4.285-2.402-6.076h-.201l-.106-.3c.015 3.351-.691 6.652-2.076 9.766-1.817 4.075-1.55 8.774.715 12.572l1.563 2.622-2.812-1.188c-4.637-1.959-8.344-5.733-10.171-10.354-2.047-5.16-1.668-11.143 1.015-16.001 1.399-2.527 2.379-5.21 2.914-7.976l.523-2.711 1.334 2.418c.637 1.153 1.106 2.401 1.397 3.712l.03.031.031.21.029-.009c3.996-5.309 6.39-11.915 6.739-18.604l.09-1.733 1.454.948c5.934 3.867 10.055 10.071 11.328 17.042l.029.143.015.022.065-.092c1.163-1.536 1.777-3.363 1.777-5.286v-2.978l1.797 2.374c4.178 5.518 6.32 12.363 6.032 19.275-.354 8.136-4.791 15.277-11.87 19.146l-3.065 1.675z"/></svg>