<svg width="913" height="172" viewBox="0 0 913 172" fill="none" xmlns="http://www.w3.org/2000/svg">
<rect width="912.34" height="171.37" fill="#10314C"/>
<path d="M24.5948 145.55V25.0906H64.7479C86.3414 25.0906 98.2981 35.9766 98.2981 55.9639C98.2981 70.9544 91.5167 78.0928 84.0215 80.7696C92.5875 84.3388 101.689 91.8341 101.689 109.858C101.689 133.593 87.0553 145.55 63.8557 145.55H24.5948ZM51.542 72.0252H59.0373C69.2094 72.0252 71.5294 67.9206 71.5294 58.6408C71.5294 49.1825 67.7817 45.2564 59.2157 45.2564H51.542V72.0252ZM51.542 91.4771V125.563H60.2865C68.8525 125.563 73.314 121.458 73.314 108.788C73.314 96.6524 69.7448 91.4771 58.6804 91.4771H51.542ZM148.071 96.2955H142.004V145.55H114.7V25.0906H155.388C178.588 25.0906 190.544 36.5119 190.544 58.4623C190.544 75.059 182.335 82.9111 175.019 85.7665C184.477 90.0495 188.938 97.7232 188.938 115.034V119.317C188.938 132.701 189.474 140.196 190.188 145.55H163.419C161.991 140.91 161.456 130.203 161.456 118.424V114.32C161.456 100.043 158.6 96.2955 148.071 96.2955ZM142.004 45.6133V75.4159H148.428C158.957 75.4159 162.883 71.6683 162.883 59.89C162.883 50.0748 159.314 45.6133 150.213 45.6133H142.004ZM268.336 71.8467V94.5109H231.752V123.243H273.154L269.942 145.55H204.626V25.0906H269.942V47.7548H231.752V71.8467H268.336ZM334.134 119.674H312.183L308.079 145.55H280.418L304.153 25.0906H343.057L367.149 145.55H338.417L334.134 119.674ZM315.753 96.474H330.565C327.709 78.8066 325.032 59.1762 323.605 48.1117H322.712C321.463 59.7115 318.608 78.8066 315.753 96.474ZM376.462 145.55V25.0906H403.409V75.2374C409.298 63.1022 420.898 38.6534 428.036 25.0906H458.731L431.427 72.2036L459.267 145.55H429.107L411.975 96.1171L403.409 108.966V145.55H376.462ZM496.886 145.55V25.0906H536.504C557.384 25.0906 572.374 36.6904 572.374 61.4961C572.374 86.6588 558.99 98.437 535.255 98.437H524.369V145.55H496.886ZM524.369 45.7918V77.3789H531.507C541.144 77.3789 544.713 72.739 544.713 61.3177C544.713 50.0748 539.895 45.7918 532.221 45.7918H524.369ZM623.957 22.7706C652.332 22.7706 664.824 42.5795 664.824 84.5173C664.824 128.775 652.868 147.87 622.887 147.87C594.869 147.87 582.555 128.418 582.555 83.9819C582.555 41.1519 596.296 22.7706 623.957 22.7706ZM623.6 44.721C614.142 44.721 611.465 55.7855 611.465 83.9819C611.465 113.606 614.142 126.098 623.6 126.098C633.594 126.098 635.914 114.498 635.914 83.9819C635.914 55.2501 633.594 44.721 623.6 44.721ZM679.876 25.0906H707.537V145.55H679.876V25.0906ZM750.512 145.55H725.885V25.0906H756.223C774.604 81.8404 778.709 95.5817 779.958 100.935H780.493C779.244 85.7665 778.887 65.9576 778.887 47.2195V25.0906H803.336V145.55H773.533C754.438 82.9111 750.869 70.776 749.62 65.6007H749.084C749.977 80.0558 750.512 102.363 750.512 121.994V145.55ZM837.279 145.55V47.7548H813.544V25.0906H888.497V47.7548H864.94V145.55H837.279Z" fill="#CDD95E"/>
</svg>
