<svg width="1069" height="172" viewBox="0 0 1069 172" fill="none" xmlns="http://www.w3.org/2000/svg">
<rect width="1068.34" height="171.37" fill="#E31836"/>
<path d="M73.6001 107.717H101.261C100.904 120.209 96.4428 147.87 62.8926 147.87C29.5209 147.87 22.561 123.6 22.561 85.0526C22.561 41.5088 36.3023 22.9491 63.9634 22.9491C96.0859 22.9491 100.904 47.5764 101.261 61.853H73.6001C73.4217 55.0716 73.2432 44.721 63.6064 44.721C53.9697 44.721 51.6497 55.7855 51.6497 85.2311C51.6497 111.108 53.0774 126.277 63.2495 126.277C72.7078 126.277 73.2432 115.034 73.6001 107.717ZM113.26 145.55V25.0906H140.921V70.5975H161.8V25.0906H189.64V145.55H161.8V93.7971H140.921V145.55H113.26ZM207.891 25.0906H235.553V145.55H207.891V25.0906ZM317.61 71.8467V94.5109H281.026V123.243H322.428L319.216 145.55H253.9V25.0906H319.216V47.7548H281.026V71.8467H317.61ZM334.416 145.55V25.0906H399.732V47.5764H361.898V73.6313H397.233V95.9386H361.898V145.55H334.416ZM406.789 110.572H434.093C434.807 120.566 437.484 127.347 445.871 127.347C453.902 127.347 456.4 121.994 456.4 115.034C456.4 106.825 452.296 101.828 438.019 94.5109C417.14 83.8034 409.287 74.702 409.287 57.0347C409.287 36.3335 421.779 22.7706 445.693 22.7706C473.889 22.7706 481.92 40.438 482.098 58.8192H455.508C454.973 50.4317 453.367 43.2934 445.514 43.2934C439.447 43.2934 436.592 47.2195 436.592 54.0009C436.592 60.9607 439.268 64.5299 452.474 70.9544C474.782 82.1973 484.24 91.8341 484.24 112C484.24 131.987 472.64 147.87 445.514 147.87C416.247 147.87 407.324 131.095 406.789 110.572ZM528.385 145.55V25.0906H556.046V70.5975H576.925V25.0906H604.765V145.55H576.925V93.7971H556.046V145.55H528.385ZM621.946 25.0906H649.785V109.323C649.785 117.175 651.391 126.098 661.207 126.098C670.665 126.098 672.271 118.424 672.271 109.501V25.0906H700.111V108.609C700.111 133.236 688.154 147.87 660.493 147.87C632.653 147.87 621.946 133.236 621.946 108.431V25.0906ZM716.777 145.55V25.0906H751.219C782.628 25.0906 795.477 42.9364 795.477 82.9111C795.477 125.741 782.806 145.55 750.149 145.55H716.777ZM744.616 46.3271V124.492H749.792C762.641 124.492 766.388 115.391 766.388 82.5542C766.388 55.0716 762.998 46.3271 749.97 46.3271H744.616ZM810.537 145.55V25.0906H844.98C876.388 25.0906 889.237 42.9364 889.237 82.9111C889.237 125.741 876.567 145.55 843.909 145.55H810.537ZM838.377 46.3271V124.492H843.552C856.401 124.492 860.149 115.391 860.149 82.5542C860.149 55.0716 856.758 46.3271 843.731 46.3271H838.377ZM904.298 145.55V25.0906H931.959V123.064H970.149L967.65 145.55H904.298ZM1043.47 71.8467V94.5109H1006.88V123.243H1048.29L1045.07 145.55H979.759V25.0906H1045.07V47.7548H1006.88V71.8467H1043.47Z" fill="white"/>
</svg>
