<svg width="1252" height="172" viewBox="0 0 1252 172" fill="none" xmlns="http://www.w3.org/2000/svg">
<rect width="1251.34" height="171.37" fill="#002A5B"/>
<path d="M73.6001 107.717H101.261C100.904 120.209 96.4428 147.87 62.8926 147.87C29.5209 147.87 22.561 123.6 22.561 85.0526C22.561 41.5088 36.3023 22.9491 63.9634 22.9491C96.0859 22.9491 100.904 47.5764 101.261 61.853H73.6001C73.4217 55.0716 73.2432 44.721 63.6064 44.721C53.9697 44.721 51.6497 55.7855 51.6497 85.2311C51.6497 111.108 53.0774 126.277 63.2495 126.277C72.7078 126.277 73.2432 115.034 73.6001 107.717ZM152.67 22.7706C181.045 22.7706 193.537 42.5795 193.537 84.5173C193.537 128.775 181.58 147.87 151.599 147.87C123.581 147.87 111.267 128.418 111.267 83.9819C111.267 41.1519 125.009 22.7706 152.67 22.7706ZM152.313 44.721C142.855 44.721 140.178 55.7855 140.178 83.9819C140.178 113.606 142.855 126.098 152.313 126.098C162.307 126.098 164.626 114.498 164.626 83.9819C164.626 55.2501 162.307 44.721 152.313 44.721ZM248.231 145.55H220.213L200.226 25.0906H229.315C231.813 47.3979 235.739 86.3018 237.167 107.895H237.881C241.272 84.3388 246.625 50.4317 250.373 25.0906H273.929C277.32 47.041 282.674 82.9111 285.708 107.003H286.6C288.563 83.2681 293.203 43.4718 295.166 25.0906H321.935L300.52 145.55H272.68C269.111 124.313 264.114 97.5447 261.08 73.4528H260.367C257.333 97.1878 251.801 124.849 248.231 145.55ZM331.797 145.55V25.0906H371.951C393.544 25.0906 405.501 35.9766 405.501 55.9639C405.501 70.9544 398.719 78.0928 391.224 80.7696C399.79 84.3388 408.891 91.8341 408.891 109.858C408.891 133.593 394.258 145.55 371.058 145.55H331.797ZM358.745 72.0252H366.24C376.412 72.0252 378.732 67.9206 378.732 58.6408C378.732 49.1825 374.984 45.2564 366.418 45.2564H358.745V72.0252ZM358.745 91.4771V125.563H367.489C376.055 125.563 380.517 121.458 380.517 108.788C380.517 96.6524 376.947 91.4771 365.883 91.4771H358.745ZM460.789 22.7706C489.164 22.7706 501.656 42.5795 501.656 84.5173C501.656 128.775 489.7 147.87 459.719 147.87C431.701 147.87 419.387 128.418 419.387 83.9819C419.387 41.1519 433.128 22.7706 460.789 22.7706ZM460.432 44.721C450.974 44.721 448.297 55.7855 448.297 83.9819C448.297 113.606 450.974 126.098 460.432 126.098C470.426 126.098 472.746 114.498 472.746 83.9819C472.746 55.2501 470.426 44.721 460.432 44.721ZM559.087 145.55H531.425V106.468C531.425 104.683 531.247 102.898 530.355 100.935L502.158 25.0906H532.675C537.672 43.2934 543.204 64.173 546.238 78.985C549.45 65.2437 555.517 42.758 559.979 25.0906H588.532L559.979 101.114C559.443 102.542 559.087 103.791 559.087 105.932V145.55ZM589.779 110.572H617.083C617.797 120.566 620.473 127.347 628.861 127.347C636.892 127.347 639.39 121.994 639.39 115.034C639.39 106.825 635.285 101.828 621.009 94.5109C600.129 83.8034 592.277 74.702 592.277 57.0347C592.277 36.3335 604.769 22.7706 628.683 22.7706C656.879 22.7706 664.91 40.438 665.088 58.8192H638.498C637.962 50.4317 636.356 43.2934 628.504 43.2934C622.436 43.2934 619.581 47.2195 619.581 54.0009C619.581 60.9607 622.258 64.5299 635.464 70.9544C657.771 82.1973 667.23 91.8341 667.23 112C667.23 131.987 655.63 147.87 628.504 147.87C599.237 147.87 590.314 131.095 589.779 110.572ZM711.374 145.55V25.0906H739.035V70.5975H759.915V25.0906H787.755V145.55H759.915V93.7971H739.035V145.55H711.374ZM804.935 25.0906H832.775V109.323C832.775 117.175 834.381 126.098 844.196 126.098C853.654 126.098 855.261 118.424 855.261 109.501V25.0906H883.1V108.609C883.1 133.236 871.143 147.87 843.482 147.87C815.643 147.87 804.935 133.236 804.935 108.431V25.0906ZM899.766 145.55V25.0906H934.209C965.618 25.0906 978.467 42.9364 978.467 82.9111C978.467 125.741 965.796 145.55 933.138 145.55H899.766ZM927.606 46.3271V124.492H932.781C945.63 124.492 949.378 115.391 949.378 82.5542C949.378 55.0716 945.987 46.3271 932.96 46.3271H927.606ZM993.527 145.55V25.0906H1027.97C1059.38 25.0906 1072.23 42.9364 1072.23 82.9111C1072.23 125.741 1059.56 145.55 1026.9 145.55H993.527ZM1021.37 46.3271V124.492H1026.54C1039.39 124.492 1043.14 115.391 1043.14 82.5542C1043.14 55.0716 1039.75 46.3271 1026.72 46.3271H1021.37ZM1087.29 145.55V25.0906H1114.95V123.064H1153.14L1150.64 145.55H1087.29ZM1226.46 71.8467V94.5109H1189.87V123.243H1231.28L1228.06 145.55H1162.75V25.0906H1228.06V47.7548H1189.87V71.8467H1226.46Z" fill="#C0CED5"/>
</svg>
