<svg width="1303" height="172" viewBox="0 0 1303 172" fill="none" xmlns="http://www.w3.org/2000/svg">
<rect width="1302.34" height="171.37" fill="#253B73"/>
<path d="M87.4829 71.8467V94.5109H50.8989V123.243H92.3013L89.089 145.55H23.7733V25.0906H89.089V47.7548H50.8989V71.8467H87.4829ZM100.852 110.572H128.156C128.87 120.566 131.547 127.347 139.934 127.347C147.965 127.347 150.463 121.994 150.463 115.034C150.463 106.825 146.359 101.828 132.082 94.5109C111.203 83.8034 103.35 74.702 103.35 57.0347C103.35 36.3335 115.842 22.7706 139.756 22.7706C167.952 22.7706 175.983 40.438 176.161 58.8192H149.571C149.036 50.4317 147.43 43.2934 139.577 43.2934C133.51 43.2934 130.655 47.2195 130.655 54.0009C130.655 60.9607 133.331 64.5299 146.537 70.9544C168.845 82.1973 178.303 91.8341 178.303 112C178.303 131.987 166.703 147.87 139.577 147.87C110.31 147.87 101.387 131.095 100.852 110.572ZM187.816 110.572H215.12C215.834 120.566 218.51 127.347 226.898 127.347C234.929 127.347 237.427 121.994 237.427 115.034C237.427 106.825 233.322 101.828 219.046 94.5109C198.166 83.8034 190.314 74.702 190.314 57.0347C190.314 36.3335 202.806 22.7706 226.72 22.7706C254.916 22.7706 262.947 40.438 263.125 58.8192H236.535C235.999 50.4317 234.393 43.2934 226.541 43.2934C220.473 43.2934 217.618 47.2195 217.618 54.0009C217.618 60.9607 220.295 64.5299 233.501 70.9544C255.808 82.1973 265.267 91.8341 265.267 112C265.267 131.987 253.667 147.87 226.541 147.87C197.274 147.87 188.351 131.095 187.816 110.572ZM342.1 71.8467V94.5109H305.516V123.243H346.918L343.706 145.55H278.39V25.0906H343.706V47.7548H305.516V71.8467H342.1ZM383.533 145.55H358.906V25.0906H389.244C407.625 81.8404 411.729 95.5817 412.979 100.935H413.514C412.265 85.7665 411.908 65.9576 411.908 47.2195V25.0906H436.357V145.55H406.554C387.459 82.9111 383.89 70.776 382.641 65.6007H382.105C382.998 80.0558 383.533 102.363 383.533 121.994V145.55ZM470.3 145.55V47.7548H446.565V25.0906H521.518V47.7548H497.961V145.55H470.3ZM532.31 25.0906H559.971V145.55H532.31V25.0906ZM623.826 119.674H601.875L597.771 145.55H570.11L593.845 25.0906H632.749L656.841 145.55H628.109L623.826 119.674ZM605.445 96.474H620.257C617.401 78.8066 614.724 59.1762 613.297 48.1117H612.404C611.155 59.7115 608.3 78.8066 605.445 96.474ZM666.154 145.55V25.0906H693.815V123.064H732.005L729.507 145.55H666.154ZM741.615 145.55V25.0906H769.276V123.064H807.467L804.968 145.55H741.615ZM849.696 145.55H822.035V106.468C822.035 104.683 821.856 102.898 820.964 100.935L792.767 25.0906H823.284C828.281 43.2934 833.813 64.173 836.847 78.985C840.059 65.2437 846.126 42.758 850.588 25.0906H879.141L850.588 101.114C850.053 102.542 849.696 103.791 849.696 105.932V145.55ZM916.763 145.55V25.0906H951.205C982.614 25.0906 995.463 42.9364 995.463 82.9111C995.463 125.741 982.792 145.55 950.134 145.55H916.763ZM944.602 46.3271V124.492H949.777C962.626 124.492 966.374 115.391 966.374 82.5542C966.374 55.0716 962.983 46.3271 949.956 46.3271H944.602ZM1009.45 25.0906H1037.29V109.323C1037.29 117.175 1038.9 126.098 1048.71 126.098C1058.17 126.098 1059.78 118.424 1059.78 109.501V25.0906H1087.62V108.609C1087.62 133.236 1075.66 147.87 1048 147.87C1020.16 147.87 1009.45 133.236 1009.45 108.431V25.0906ZM1128.91 145.55H1104.28V25.0906H1134.62C1153 81.8404 1157.11 95.5817 1158.36 100.935H1158.89C1157.64 85.7665 1157.29 65.9576 1157.29 47.2195V25.0906H1181.73V145.55H1151.93C1132.84 82.9111 1129.27 70.776 1128.02 65.6007H1127.48C1128.38 80.0558 1128.91 102.363 1128.91 121.994V145.55ZM1199.96 145.55V25.0906H1226.91V75.2374C1232.8 63.1022 1244.4 38.6534 1251.54 25.0906H1282.23L1254.93 72.2036L1282.77 145.55H1252.61L1235.47 96.1171L1226.91 108.966V145.55H1199.96Z" fill="white"/>
</svg>
