<svg width="1272" height="172" viewBox="0 0 1272 172" fill="none" xmlns="http://www.w3.org/2000/svg">
<rect width="1271.34" height="171.37" fill="#008F00"/>
<path d="M89.4829 71.8467V94.5109H52.8989V123.243H94.3013L91.089 145.55H25.7733V25.0906H91.089V47.7548H52.8989V71.8467H89.4829ZM102.852 110.572H130.156C130.87 120.566 133.547 127.347 141.934 127.347C149.965 127.347 152.463 121.994 152.463 115.034C152.463 106.825 148.359 101.828 134.082 94.5109C113.203 83.8034 105.35 74.702 105.35 57.0347C105.35 36.3335 117.842 22.7706 141.756 22.7706C169.952 22.7706 177.983 40.438 178.161 58.8192H151.571C151.036 50.4317 149.43 43.2934 141.577 43.2934C135.51 43.2934 132.655 47.2195 132.655 54.0009C132.655 60.9607 135.331 64.5299 148.537 70.9544C170.845 82.1973 180.303 91.8341 180.303 112C180.303 131.987 168.703 147.87 141.577 147.87C112.31 147.87 103.387 131.095 102.852 110.572ZM189.816 110.572H217.12C217.834 120.566 220.51 127.347 228.898 127.347C236.929 127.347 239.427 121.994 239.427 115.034C239.427 106.825 235.322 101.828 221.046 94.5109C200.166 83.8034 192.314 74.702 192.314 57.0347C192.314 36.3335 204.806 22.7706 228.72 22.7706C256.916 22.7706 264.947 40.438 265.125 58.8192H238.535C237.999 50.4317 236.393 43.2934 228.541 43.2934C222.473 43.2934 219.618 47.2195 219.618 54.0009C219.618 60.9607 222.295 64.5299 235.501 70.9544C257.808 82.1973 267.267 91.8341 267.267 112C267.267 131.987 255.667 147.87 228.541 147.87C199.274 147.87 190.351 131.095 189.816 110.572ZM344.1 71.8467V94.5109H307.516V123.243H348.918L345.706 145.55H280.39V25.0906H345.706V47.7548H307.516V71.8467H344.1ZM385.533 145.55H360.906V25.0906H391.244C409.625 81.8404 413.729 95.5817 414.979 100.935H415.514C414.265 85.7665 413.908 65.9576 413.908 47.2195V25.0906H438.357V145.55H408.554C389.459 82.9111 385.89 70.776 384.641 65.6007H384.105C384.998 80.0558 385.533 102.363 385.533 121.994V145.55ZM472.3 145.55V47.7548H448.565V25.0906H523.518V47.7548H499.961V145.55H472.3ZM534.31 25.0906H561.971V145.55H534.31V25.0906ZM625.826 119.674H603.875L599.771 145.55H572.11L595.845 25.0906H634.749L658.841 145.55H630.109L625.826 119.674ZM607.445 96.474H622.257C619.401 78.8066 616.724 59.1762 615.297 48.1117H614.404C613.155 59.7115 610.3 78.8066 607.445 96.474ZM668.154 145.55V25.0906H695.815V123.064H734.005L731.507 145.55H668.154ZM743.615 145.55V25.0906H771.276V123.064H809.467L806.968 145.55H743.615ZM851.696 145.55H824.035V106.468C824.035 104.683 823.856 102.898 822.964 100.935L794.767 25.0906H825.284C830.281 43.2934 835.813 64.173 838.847 78.985C842.059 65.2437 848.126 42.758 852.588 25.0906H881.141L852.588 101.114C852.053 102.542 851.696 103.791 851.696 105.932V145.55ZM995.678 76.4866V145.55H975.334C974.798 142.338 974.442 139.304 974.263 136.092C969.088 145.372 959.986 147.87 950.528 147.87C926.615 147.87 915.55 129.846 915.55 86.1234C915.55 38.2965 931.968 22.9491 958.38 22.9491C992.287 22.9491 995.143 49.8963 995.321 59.1762H967.66C967.303 53.287 966.589 44.721 957.488 44.721C947.137 44.721 944.639 58.2839 944.639 86.3018C944.639 115.212 946.959 126.098 956.953 126.098C965.34 126.098 967.839 118.96 967.839 105.932V98.2586H956.06V76.4866H995.678ZM1051.06 22.7706C1079.44 22.7706 1091.93 42.5795 1091.93 84.5173C1091.93 128.775 1079.97 147.87 1049.99 147.87C1021.97 147.87 1009.66 128.418 1009.66 83.9819C1009.66 41.1519 1023.4 22.7706 1051.06 22.7706ZM1050.7 44.721C1041.25 44.721 1038.57 55.7855 1038.57 83.9819C1038.57 113.606 1041.25 126.098 1050.7 126.098C1060.7 126.098 1063.02 114.498 1063.02 83.9819C1063.02 55.2501 1060.7 44.721 1050.7 44.721ZM1106.98 145.55V25.0906H1134.64V123.064H1172.83L1170.33 145.55H1106.98ZM1182.44 145.55V25.0906H1247.76V47.5764H1209.92V73.6313H1245.26V95.9386H1209.92V145.55H1182.44Z" fill="white"/>
</svg>
