<svg width="1464" height="172" viewBox="0 0 1464 172" fill="none" xmlns="http://www.w3.org/2000/svg">
<rect width="1463.34" height="171.37" fill="#FCD53D"/>
<path d="M25.7733 145.55V25.0906H53.4343V123.064H91.6244L89.126 145.55H25.7733ZM98.5954 25.0906H126.435V109.323C126.435 117.175 128.041 126.098 137.856 126.098C147.315 126.098 148.921 118.424 148.921 109.501V25.0906H176.76V108.609C176.76 133.236 164.804 147.87 137.142 147.87C109.303 147.87 98.5954 133.236 98.5954 108.431V25.0906ZM241.951 107.717H269.612C269.255 120.209 264.793 147.87 231.243 147.87C197.871 147.87 190.911 123.6 190.911 85.0526C190.911 41.5088 204.653 22.9491 232.314 22.9491C264.436 22.9491 269.255 47.5764 269.612 61.853H241.951C241.772 55.0716 241.594 44.721 231.957 44.721C222.32 44.721 220 55.7855 220 85.2311C220 111.108 221.428 126.277 231.6 126.277C241.058 126.277 241.594 115.034 241.951 107.717ZM281.61 145.55V25.0906H308.557V75.2374C314.446 63.1022 326.046 38.6534 333.185 25.0906H363.879L336.575 72.2036L364.415 145.55H334.255L317.123 96.1171L308.557 108.966V145.55H281.61ZM417.4 145.55H389.739V106.468C389.739 104.683 389.561 102.898 388.668 100.935L360.472 25.0906H390.988C395.985 43.2934 401.517 64.173 404.551 78.985C407.764 65.2437 413.831 42.758 418.293 25.0906H446.846L418.293 101.114C417.757 102.542 417.4 103.791 417.4 105.932V145.55ZM484.467 145.55V25.0906H518.91C550.318 25.0906 563.167 42.9364 563.167 82.9111C563.167 125.741 550.497 145.55 517.839 145.55H484.467ZM512.307 46.3271V124.492H517.482C530.331 124.492 534.079 115.391 534.079 82.5542C534.079 55.0716 530.688 46.3271 517.66 46.3271H512.307ZM616.418 22.7706C644.793 22.7706 657.285 42.5795 657.285 84.5173C657.285 128.775 645.328 147.87 615.347 147.87C587.329 147.87 575.015 128.418 575.015 83.9819C575.015 41.1519 588.757 22.7706 616.418 22.7706ZM616.061 44.721C606.602 44.721 603.926 55.7855 603.926 83.9819C603.926 113.606 606.602 126.098 616.061 126.098C626.054 126.098 628.374 114.498 628.374 83.9819C628.374 55.2501 626.054 44.721 616.061 44.721ZM749.252 76.4866V145.55H728.908C728.372 142.338 728.016 139.304 727.837 136.092C722.662 145.372 713.56 147.87 704.102 147.87C680.189 147.87 669.124 129.846 669.124 86.1234C669.124 38.2965 685.542 22.9491 711.954 22.9491C745.861 22.9491 748.717 49.8963 748.895 59.1762H721.234C720.877 53.287 720.163 44.721 711.062 44.721C700.711 44.721 698.213 58.2839 698.213 86.3018C698.213 115.212 700.533 126.098 710.527 126.098C718.914 126.098 721.413 118.96 721.413 105.932V98.2586H709.634V76.4866H749.252ZM834.088 22.7706C862.463 22.7706 874.955 42.5795 874.955 84.5173C874.955 128.775 862.998 147.87 833.017 147.87C804.999 147.87 792.686 128.418 792.686 83.9819C792.686 41.1519 806.427 22.7706 834.088 22.7706ZM833.731 44.721C824.273 44.721 821.596 55.7855 821.596 83.9819C821.596 113.606 824.273 126.098 833.731 126.098C843.725 126.098 846.045 114.498 846.045 83.9819C846.045 55.2501 843.725 44.721 833.731 44.721ZM914.634 145.55H890.007V25.0906H920.345C938.726 81.8404 942.831 95.5817 944.08 100.935H944.615C943.366 85.7665 943.009 65.9576 943.009 47.2195V25.0906H967.458V145.55H937.655C918.56 82.9111 914.991 70.776 913.742 65.6007H913.207C914.099 80.0558 914.634 102.363 914.634 121.994V145.55ZM1032.42 145.55V47.7548H1008.69V25.0906H1083.64V47.7548H1060.08V145.55H1032.42ZM1127.8 96.2955H1121.74V145.55H1094.43V25.0906H1135.12C1158.32 25.0906 1170.28 36.5119 1170.28 58.4623C1170.28 75.059 1162.07 82.9111 1154.75 85.7665C1164.21 90.0495 1168.67 97.7232 1168.67 115.034V119.317C1168.67 132.701 1169.21 140.196 1169.92 145.55H1143.15C1141.72 140.91 1141.19 130.203 1141.19 118.424V114.32C1141.19 100.043 1138.33 96.2955 1127.8 96.2955ZM1121.74 45.6133V75.4159H1128.16C1138.69 75.4159 1142.62 71.6683 1142.62 59.89C1142.62 50.0748 1139.05 45.6133 1129.95 45.6133H1121.74ZM1231.78 119.674H1209.83L1205.73 145.55H1178.07L1201.8 25.0906H1240.71L1264.8 145.55H1236.07L1231.78 119.674ZM1213.4 96.474H1228.21C1225.36 78.8066 1222.68 59.1762 1221.25 48.1117H1220.36C1219.11 59.7115 1216.26 78.8066 1213.4 96.474ZM1321.94 107.717H1349.6C1349.24 120.209 1344.78 147.87 1311.23 147.87C1277.86 147.87 1270.9 123.6 1270.9 85.0526C1270.9 41.5088 1284.64 22.9491 1312.3 22.9491C1344.42 22.9491 1349.24 47.5764 1349.6 61.853H1321.94C1321.76 55.0716 1321.58 44.721 1311.94 44.721C1302.31 44.721 1299.99 55.7855 1299.99 85.2311C1299.99 111.108 1301.42 126.277 1311.59 126.277C1321.05 126.277 1321.58 115.034 1321.94 107.717ZM1361.6 145.55V25.0906H1388.54V75.2374C1394.43 63.1022 1406.03 38.6534 1413.17 25.0906H1443.87L1416.56 72.2036L1444.4 145.55H1414.24L1397.11 96.1171L1388.54 108.966V145.55H1361.6Z" fill="black"/>
</svg>
