<svg width="1002" height="172" viewBox="0 0 1002 172" fill="none" xmlns="http://www.w3.org/2000/svg">
<rect width="1001.34" height="171.37" fill="#F74600"/>
<path d="M22.4195 110.572H49.7236C50.4375 120.566 53.1144 127.347 61.5019 127.347C69.5325 127.347 72.031 121.993 72.031 115.034C72.031 106.825 67.9264 101.828 53.6497 94.5109C32.7701 83.8034 24.9179 74.702 24.9179 57.0346C24.9179 36.3334 37.41 22.7706 61.3234 22.7706C89.5199 22.7706 97.5505 40.438 97.729 58.8192H71.1387C70.6033 50.4316 68.9972 43.2933 61.145 43.2933C55.0774 43.2933 52.2221 47.2194 52.2221 54.0008C52.2221 60.9607 54.8989 64.5299 68.1049 70.9544C90.4122 82.1972 99.8705 91.834 99.8705 112C99.8705 131.987 88.2707 147.87 61.145 147.87C31.8778 147.87 22.9549 131.095 22.4195 110.572ZM112.994 145.55V25.0905H140.655V70.5974H161.535V25.0905H189.374V145.55H161.535V93.797H140.655V145.55H112.994ZM271.336 71.8467V94.5109H234.752V123.243H276.154L272.942 145.55H207.626V25.0905H272.942V47.7548H234.752V71.8467H271.336ZM395.555 76.4866V145.55H375.211C374.676 142.338 374.319 139.304 374.14 136.092C368.965 145.372 359.863 147.87 350.405 147.87C326.492 147.87 315.427 129.846 315.427 86.1233C315.427 38.2965 331.846 22.949 358.257 22.949C392.164 22.949 395.02 49.8963 395.198 59.1761H367.537C367.18 53.287 366.466 44.721 357.365 44.721C347.014 44.721 344.516 58.2838 344.516 86.3018C344.516 115.212 346.836 126.098 356.83 126.098C365.217 126.098 367.716 118.96 367.716 105.932V98.2585H355.937V76.4866H395.555ZM450.939 22.7706C479.314 22.7706 491.806 42.5795 491.806 84.5172C491.806 128.775 479.849 147.87 449.868 147.87C421.85 147.87 409.536 128.418 409.536 83.9818C409.536 41.1518 423.278 22.7706 450.939 22.7706ZM450.582 44.721C441.123 44.721 438.447 55.7854 438.447 83.9818C438.447 113.606 441.123 126.098 450.582 126.098C460.575 126.098 462.895 114.498 462.895 83.9818C462.895 55.25 460.575 44.721 450.582 44.721ZM520.483 145.55V47.7548H496.748V25.0905H571.701V47.7548H548.144V145.55H520.483ZM689.907 76.4866V145.55H669.563C669.027 142.338 668.67 139.304 668.492 136.092C663.317 145.372 654.215 147.87 644.757 147.87C620.844 147.87 609.779 129.846 609.779 86.1233C609.779 38.2965 626.197 22.949 652.609 22.949C686.516 22.949 689.372 49.8963 689.55 59.1761H661.889C661.532 53.287 660.818 44.721 651.717 44.721C641.366 44.721 638.868 58.2838 638.868 86.3018C638.868 115.212 641.188 126.098 651.182 126.098C659.569 126.098 662.068 118.96 662.068 105.932V98.2585H650.289V76.4866H689.907ZM752.956 119.674H731.005L726.901 145.55H699.24L722.975 25.0905H761.879L785.971 145.55H757.239L752.956 119.674ZM734.575 96.4739H749.387C746.531 78.8065 743.854 59.1761 742.427 48.1117H741.534C740.285 59.7115 737.43 78.8065 734.575 96.4739ZM868.63 145.55V107.003C868.63 88.2648 868.987 63.2806 869.344 48.647H868.63C865.061 73.8097 860.064 114.677 854.532 145.55H832.225C827.942 113.427 822.945 72.7389 819.733 48.4686H818.84C819.376 62.5668 819.911 87.0156 819.911 107.895V145.55H795.462V25.0905H834.545C838.471 50.2532 842.397 80.4127 844.182 97.3662H844.717C847.037 79.3419 851.677 53.287 856.138 25.0905H894.685V145.55H868.63ZM976.63 71.8467V94.5109H940.046V123.243H981.448L978.236 145.55H912.92V25.0905H978.236V47.7548H940.046V71.8467H976.63Z" fill="white"/>
</svg>
