<svg width="1258" height="172" viewBox="0 0 1258 172" fill="none" xmlns="http://www.w3.org/2000/svg">
<rect width="1257.34" height="171.37" fill="black"/>
<path d="M23.4195 110.572H50.7236C51.4375 120.566 54.1144 127.347 62.5019 127.347C70.5325 127.347 73.031 121.994 73.031 115.034C73.031 106.825 68.9264 101.828 54.6497 94.5109C33.7701 83.8034 25.9179 74.702 25.9179 57.0347C25.9179 36.3335 38.41 22.7706 62.3234 22.7706C90.5199 22.7706 98.5505 40.438 98.729 58.8192H72.1387C71.6033 50.4317 69.9972 43.2934 62.145 43.2934C56.0774 43.2934 53.2221 47.2195 53.2221 54.0009C53.2221 60.9607 55.8989 64.5299 69.1049 70.9544C91.4122 82.1973 100.87 91.8341 100.87 112C100.87 131.987 89.2707 147.87 62.145 147.87C32.8778 147.87 23.9549 131.095 23.4195 110.572ZM130.757 145.55V47.7548H107.022V25.0906H181.974V47.7548H158.418V145.55H130.757ZM256.476 71.8467V94.5109H219.892V123.243H261.295L258.083 145.55H192.767V25.0906H258.083V47.7548H219.892V71.8467H256.476ZM336.992 71.8467V94.5109H300.408V123.243H341.81L338.598 145.55H273.282V25.0906H338.598V47.7548H300.408V71.8467H336.992ZM353.798 145.55V25.0906H381.459V123.064H419.649L417.15 145.55H353.798ZM492.969 71.8467V94.5109H456.385V123.243H497.787L494.575 145.55H429.259V25.0906H494.575V47.7548H456.385V71.8467H492.969ZM543.146 96.2955H537.079V145.55H509.775V25.0906H550.463C573.663 25.0906 585.619 36.5119 585.619 58.4623C585.619 75.059 577.41 82.9111 570.093 85.7665C579.552 90.0495 584.013 97.7232 584.013 115.034V119.317C584.013 132.701 584.549 140.196 585.262 145.55H558.494C557.066 140.91 556.531 130.203 556.531 118.424V114.32C556.531 100.043 553.675 96.2955 543.146 96.2955ZM537.079 45.6133V75.4159H543.503C554.032 75.4159 557.958 71.6683 557.958 59.89C557.958 50.0748 554.389 45.6133 545.288 45.6133H537.079ZM595.741 110.572H623.045C623.759 120.566 626.436 127.347 634.824 127.347C642.854 127.347 645.353 121.994 645.353 115.034C645.353 106.825 641.248 101.828 626.972 94.5109C606.092 83.8034 598.24 74.702 598.24 57.0347C598.24 36.3335 610.732 22.7706 634.645 22.7706C662.842 22.7706 670.872 40.438 671.051 58.8192H644.46C643.925 50.4317 642.319 43.2934 634.467 43.2934C628.399 43.2934 625.544 47.2195 625.544 54.0009C625.544 60.9607 628.221 64.5299 641.427 70.9544C663.734 82.1973 673.192 91.8341 673.192 112C673.192 131.987 661.592 147.87 634.467 147.87C605.2 147.87 596.277 131.095 595.741 110.572ZM717.337 145.55V25.0906H744.998V70.5975H765.878V25.0906H793.717V145.55H765.878V93.7971H744.998V145.55H717.337ZM810.898 25.0906H838.738V109.323C838.738 117.175 840.344 126.098 850.159 126.098C859.617 126.098 861.223 118.424 861.223 109.501V25.0906H889.063V108.609C889.063 133.236 877.106 147.87 849.445 147.87C821.606 147.87 810.898 133.236 810.898 108.431V25.0906ZM905.729 145.55V25.0906H940.172C971.58 25.0906 984.429 42.9364 984.429 82.9111C984.429 125.741 971.759 145.55 939.101 145.55H905.729ZM933.569 46.3271V124.492H938.744C951.593 124.492 955.341 115.391 955.341 82.5542C955.341 55.0716 951.95 46.3271 938.922 46.3271H933.569ZM999.49 145.55V25.0906H1033.93C1065.34 25.0906 1078.19 42.9364 1078.19 82.9111C1078.19 125.741 1065.52 145.55 1032.86 145.55H999.49ZM1027.33 46.3271V124.492H1032.5C1045.35 124.492 1049.1 115.391 1049.1 82.5542C1049.1 55.0716 1045.71 46.3271 1032.68 46.3271H1027.33ZM1093.25 145.55V25.0906H1120.91V123.064H1159.1L1156.6 145.55H1093.25ZM1232.42 71.8467V94.5109H1195.84V123.243H1237.24L1234.03 145.55H1168.71V25.0906H1234.03V47.7548H1195.84V71.8467H1232.42Z" fill="#F0AE00"/>
</svg>
