<svg width="855" height="170" viewBox="0 0 855 170" fill="none" xmlns="http://www.w3.org/2000/svg">
<rect width="854.345" height="169.37" fill="#252D47"/>
<path d="M47.013 144.55V46.7548H23.278V24.0906H98.2305V46.7548H74.674V144.55H47.013ZM109.023 144.55V24.0906H136.684V69.5975H157.564V24.0906H185.403V144.55H157.564V92.7971H136.684V144.55H109.023ZM267.365 70.8467V93.5109H230.781V122.243H272.183L268.971 144.55H203.655V24.0906H268.971V46.7548H230.781V70.8467H267.365ZM314.669 144.55V24.0906H342.33V69.5975H363.209V24.0906H391.049V144.55H363.209V92.7971H342.33V144.55H314.669ZM408.23 24.0906H436.069V108.323C436.069 116.175 437.675 125.098 447.49 125.098C456.949 125.098 458.555 117.424 458.555 108.501V24.0906H486.394V107.609C486.394 132.236 474.438 146.87 446.777 146.87C418.937 146.87 408.23 132.236 408.23 107.431V24.0906ZM503.061 144.55V24.0906H537.503C568.912 24.0906 581.761 41.9364 581.761 81.9111C581.761 124.741 569.09 144.55 536.432 144.55H503.061ZM530.9 45.3271V123.492H536.076C548.925 123.492 552.672 114.391 552.672 81.5542C552.672 54.0716 549.281 45.3271 536.254 45.3271H530.9ZM596.821 144.55V24.0906H631.264C662.672 24.0906 675.521 41.9364 675.521 81.9111C675.521 124.741 662.851 144.55 630.193 144.55H596.821ZM624.661 45.3271V123.492H629.836C642.685 123.492 646.433 114.391 646.433 81.5542C646.433 54.0716 643.042 45.3271 630.014 45.3271H624.661ZM690.581 144.55V24.0906H718.243V122.064H756.433L753.934 144.55H690.581ZM829.753 70.8467V93.5109H793.169V122.243H834.571L831.359 144.55H766.043V24.0906H831.359V46.7548H793.169V70.8467H829.753Z" fill="white"/>
</svg>
